<?xml version="1.0" encoding="iso-8859-1"?>
<!-- Generator: Adobe Illustrator 19.0.0, SVG Export Plug-In . SVG Version: 6.00 Build 0)  -->
<svg version="1.1" id="Layer_1" xmlns="http://www.w3.org/2000/svg" xmlns:xlink="http://www.w3.org/1999/xlink" x="0px" y="0px"
	 viewBox="0 0 512 512" style="enable-background:new 0 0 512 512;" xml:space="preserve">
<path style="fill:#2D527C;" d="M352.07,438.247h-9.844c-8.126,0-14.716-6.59-14.716-14.716c0-8.126,6.59-14.716,14.716-14.716h9.844
	c9.477,0,17.189-7.71,17.189-17.189V165.371c0-9.477-7.71-17.189-17.189-17.189H46.621c-9.477,0-17.189,7.71-17.189,17.189v226.255
	c0,9.477,7.71,17.189,17.189,17.189h204.543c8.126,0,14.716,6.59,14.716,14.716c0,8.126-6.59,14.716-14.716,14.716H46.621
	C20.915,438.247,0,417.334,0,391.626V165.371c0-25.708,20.915-46.621,46.621-46.621h305.45c25.707,0,46.621,20.913,46.621,46.621
	v226.255C398.691,417.334,377.776,438.247,352.07,438.247z"/>
<rect x="147.532" y="423.537" style="fill:#CEE8FA;" width="103.633" height="65.712"/>
<g>
	<path style="fill:#2D527C;" d="M251.164,503.959H147.527c-8.126,0-14.716-6.59-14.716-14.716v-65.712
		c0-8.126,6.59-14.716,14.716-14.716h103.637c8.126,0,14.716,6.59,14.716,14.716v65.712
		C265.881,497.37,259.291,503.959,251.164,503.959z M162.244,474.526h74.204v-36.279h-74.204L162.244,474.526L162.244,474.526z"/>
	<path style="fill:#2D527C;" d="M288.207,503.959H110.485c-8.126,0-14.716-6.59-14.716-14.716s6.59-14.716,14.716-14.716h177.722
		c8.126,0,14.716,6.59,14.716,14.716S296.333,503.959,288.207,503.959z"/>
	<path style="fill:#2D527C;" d="M497.284,161.4c-8.126,0-14.716-6.59-14.716-14.716c0-60.219-48.991-109.21-109.21-109.21
		c-8.126,0-14.716-6.59-14.716-14.716s6.59-14.716,14.716-14.716C449.804,8.041,512,70.237,512,146.684
		C512,154.81,505.411,161.4,497.284,161.4z"/>
	<path style="fill:#2D527C;" d="M443.637,161.4c-8.126,0-14.716-6.59-14.716-14.716c0-30.637-24.927-55.562-55.563-55.562
		c-8.126,0-14.716-6.59-14.716-14.716s6.59-14.716,14.716-14.716c46.867,0,84.996,38.129,84.996,84.994
		C458.353,154.81,451.763,161.4,443.637,161.4z"/>
	<path style="fill:#2D527C;" d="M199.345,345.807c-43.051,0-78.076-35.025-78.076-78.078c0-43.051,35.025-78.076,78.076-78.076
		c43.053,0,78.078,35.025,78.078,78.076C277.423,310.783,242.398,345.807,199.345,345.807z M199.345,219.087
		c-26.822,0-48.643,21.821-48.643,48.643c0,26.824,21.821,48.645,48.643,48.645c26.824,0,48.645-21.821,48.645-48.645
		C247.99,240.908,226.168,219.087,199.345,219.087z"/>
</g>
<path style="fill:#CEE8FA;" d="M170.448,331.092c-30.47,12.354-51.969,42.22-51.969,77.123v15.318h80.865h80.865v-15.318
	c0-34.903-21.499-64.767-51.969-77.123H170.448z"/>
<path style="fill:#2D527C;" d="M280.211,438.247H118.48c-8.126,0-14.716-6.59-14.716-14.716v-15.317
	c0-40.071,24.005-75.697,61.155-90.76c1.756-0.712,3.635-1.079,5.53-1.079h57.794c1.895,0,3.773,0.366,5.53,1.079
	c37.15,15.064,61.155,50.689,61.155,90.76v15.317C294.928,431.657,288.339,438.247,280.211,438.247z M133.196,408.815h132.299v-0.6
	c0-27.112-15.713-51.314-40.264-62.406H173.46c-24.553,11.092-40.264,35.294-40.264,62.406V408.815z"/>
<g>
</g>
<g>
</g>
<g>
</g>
<g>
</g>
<g>
</g>
<g>
</g>
<g>
</g>
<g>
</g>
<g>
</g>
<g>
</g>
<g>
</g>
<g>
</g>
<g>
</g>
<g>
</g>
<g>
</g>
</svg>
